<svg width="100" height="100" xmlns="http://www.w3.org/2000/svg">

 <g>
  <title>background</title>
  <rect fill="none" id="canvas_background" height="402" width="582" y="-1" x="-1"/>
 </g>
 <g>
  <title>Layer 1</title>
  <g stroke="null" id="svg_11">
   <path stroke="null" id="svg_1" fill="#E5E5EA" d="m83.415618,40.657588l-41.671798,0c-0.982641,0 -1.965283,0.373933 -2.75123,1.12101l-7.272709,6.913029c-0.786777,0.747077 -0.786777,1.868877 0,2.615954l7.272709,6.913029c0.785947,0.747077 1.769419,1.12101 2.75123,1.12101l41.671798,0c1.179336,0 1.965283,-0.747077 1.965283,-1.868088l0,-14.947858c0,-1.120222 -0.785947,-1.868088 -1.965283,-1.868088z"/>
   <path stroke="null" id="svg_2" fill="#E5E5EA" d="m18.549664,81.443119l0,2.188376l3.931396,0l0,-2.188376c-0.614981,0.206689 -1.276438,0.3195 -1.965283,0.3195c-0.689675,0 -1.351132,-0.1136 -1.966113,-0.3195z"/>
   <path stroke="null" id="svg_3" fill="#E5E5EA" d="m18.549664,55.284368l0,15.587646c0.614981,-0.206689 1.276438,-0.3195 1.966113,-0.3195c0.688845,0 1.350302,0.1136 1.965283,0.3195l0,-15.587646c-0.614981,0.206689 -1.276438,0.320289 -1.965283,0.320289c-0.689675,0.000789 -1.351132,-0.1136 -1.966113,-0.320289z"/>
   <path stroke="null" id="svg_4" fill="#E5E5EA" d="m22.48106,18.556879l0,-2.189165l-3.931396,0l0,2.189165c0.614981,-0.206689 1.276438,-0.3195 1.966113,-0.3195c0.688845,-0.000789 1.350302,0.112811 1.965283,0.3195z"/>
   <path stroke="null" id="svg_5" fill="#E5E5EA" d="m20.515777,29.446695c-0.689675,0 -1.351132,-0.1136 -1.966113,-0.320289l0,15.588435c0.614981,-0.206689 1.276438,-0.320289 1.966113,-0.320289c0.688845,0 1.350302,0.114389 1.965283,0.320289l0,-15.588435c-0.614981,0.207478 -1.276438,0.320289 -1.965283,0.320289z"/>
   <path stroke="null" id="svg_6" fill="#E5E5EA" d="m22.48106,29.126406c2.289787,-0.769955 3.930566,-2.843943 3.930566,-5.284764s-1.641609,-4.515597 -3.930566,-5.284764c-0.614981,-0.206689 -1.276438,-0.3195 -1.965283,-0.3195c-0.689675,0 -1.351132,0.1136 -1.966113,0.3195c-2.289787,0.769955 -3.930566,2.843943 -3.930566,5.284764s1.641609,4.515597 3.930566,5.284764c0.614981,0.207478 1.276438,0.320289 1.966113,0.320289c0.688845,0 1.350302,-0.112811 1.965283,-0.320289z"/>
   <path stroke="null" id="svg_7" fill="#E5E5EA" d="m18.549664,44.714841c-2.289787,0.769955 -3.930566,2.843943 -3.930566,5.284764s1.641609,4.515597 3.930566,5.284764c0.614981,0.206689 1.276438,0.320289 1.966113,0.320289c0.688845,0 1.350302,-0.114389 1.965283,-0.320289c2.289787,-0.769955 3.930566,-2.843943 3.930566,-5.284764s-1.641609,-4.515597 -3.930566,-5.284764c-0.614981,-0.206689 -1.276438,-0.320289 -1.965283,-0.320289c-0.689675,0 -1.351132,0.1136 -1.966113,0.320289z"/>
   <path stroke="null" id="svg_8" fill="#E5E5EA" d="m18.549664,70.872015c-2.289787,0.769955 -3.930566,2.844732 -3.930566,5.285552c0,2.440032 1.641609,4.515597 3.930566,5.284764c0.614981,0.206689 1.276438,0.3195 1.966113,0.3195c0.688845,0 1.350302,-0.1136 1.965283,-0.3195c2.289787,-0.769955 3.930566,-2.844732 3.930566,-5.284764c0,-2.440821 -1.641609,-4.516386 -3.930566,-5.285552c-0.614981,-0.206689 -1.276438,-0.3195 -1.965283,-0.3195c-0.689675,0 -1.351132,0.112811 -1.966113,0.3195z"/>
   <path stroke="null" id="svg_9" fill="#E5E5EA" d="m67.690865,66.81555l-25.947046,0c-0.982641,0 -1.965283,0.373933 -2.75123,1.12101l-7.272709,6.913818c-0.786777,0.747077 -0.786777,1.868088 0,2.615165l7.272709,6.913818c0.785947,0.747077 1.769419,1.12101 2.75123,1.12101l25.947046,0c1.179336,0 1.965283,-0.747077 1.965283,-1.868088l0,-14.947858c0,-1.121799 -0.786777,-1.868877 -1.965283,-1.868877z"/>
   <path stroke="null" id="svg_10" fill="#E5E5EA" d="m38.99176,32.062649c0.785947,0.747866 1.769419,1.121799 2.75123,1.121799l27.913158,0c1.179336,0 1.965283,-0.747866 1.965283,-1.868877l0,-14.947858c0,-1.12101 -0.785947,-1.868088 -1.965283,-1.868088l-27.912328,0c-0.982641,0 -1.965283,0.373933 -2.75123,1.12101l-7.272709,6.913818c-0.786777,0.747077 -0.786777,1.868088 0,2.615165l7.271879,6.913029z"/>
  </g>
 </g>
</svg>