<svg width="100" height="100" xmlns="http://www.w3.org/2000/svg">

 <g>
  <title>background</title>
  <rect fill="none" id="canvas_background" height="402" width="582" y="-1" x="-1"/>
 </g>
 <g>
  <title>Layer 1</title>
  <g stroke="null" id="svg_11">
   <path stroke="null" id="svg_1" fill="#76CCD7" d="m86.24908,39.604897l-45.205339,0c-1.065964,0 -2.131928,0.416067 -2.984519,1.247324l-7.889394,7.691981c-0.853491,0.831257 -0.853491,2.079459 0,2.910716l7.889394,7.691981c0.852591,0.831257 1.919456,1.247324 2.984519,1.247324l45.205339,0c1.279337,0 2.131928,-0.831257 2.131928,-2.078582l0,-16.632163c0,-1.246447 -0.852591,-2.078582 -2.131928,-2.078582z"/>
   <path stroke="null" id="svg_2" fill="#76CCD7" d="m15.882848,84.98609l0,2.43496l4.264757,0l0,-2.43496c-0.667128,0.229978 -1.384673,0.355501 -2.131928,0.355501c-0.748156,0 -1.465701,-0.1264 -2.132828,-0.355501z"/>
   <path stroke="null" id="svg_3" fill="#76CCD7" d="m15.882848,55.879804l0,17.344042c0.667128,-0.229978 1.384673,-0.355501 2.132828,-0.355501c0.747255,0 1.4648,0.1264 2.131928,0.355501l0,-17.344042c-0.667128,0.229978 -1.384673,0.356378 -2.131928,0.356378c-0.748156,0.000878 -1.465701,-0.1264 -2.132828,-0.356378z"/>
   <path stroke="null" id="svg_4" fill="#76CCD7" d="m20.147604,15.013908l0,-2.435838l-4.264757,0l0,2.435838c0.667128,-0.229978 1.384673,-0.355501 2.132828,-0.355501c0.747255,-0.000878 1.4648,0.125522 2.131928,0.355501z"/>
   <path stroke="null" id="svg_5" fill="#76CCD7" d="m18.015676,27.130774c-0.748156,0 -1.465701,-0.1264 -2.132828,-0.356378l0,17.34492c0.667128,-0.229978 1.384673,-0.356378 2.132828,-0.356378c0.747255,0 1.4648,0.127278 2.131928,0.356378l0,-17.34492c-0.667128,0.230856 -1.384673,0.356378 -2.131928,0.356378z"/>
   <path stroke="null" id="svg_6" fill="#76CCD7" d="m20.147604,26.774396c2.483948,-0.856713 4.263856,-3.164395 4.263856,-5.880244s-1.780808,-5.024409 -4.263856,-5.880244c-0.667128,-0.229978 -1.384673,-0.355501 -2.131928,-0.355501c-0.748156,0 -1.465701,0.1264 -2.132828,0.355501c-2.483948,0.856713 -4.263856,3.164395 -4.263856,5.880244s1.780808,5.024409 4.263856,5.880244c0.667128,0.230856 1.384673,0.356378 2.132828,0.356378c0.747255,0 1.4648,-0.125522 2.131928,-0.356378z"/>
   <path stroke="null" id="svg_7" fill="#76CCD7" d="m15.882848,44.119316c-2.483948,0.856713 -4.263856,3.164395 -4.263856,5.880244s1.780808,5.024409 4.263856,5.880244c0.667128,0.229978 1.384673,0.356378 2.132828,0.356378c0.747255,0 1.4648,-0.127278 2.131928,-0.356378c2.483948,-0.856713 4.263856,-3.164395 4.263856,-5.880244s-1.780808,-5.024409 -4.263856,-5.880244c-0.667128,-0.229978 -1.384673,-0.356378 -2.131928,-0.356378c-0.748156,0 -1.465701,0.1264 -2.132828,0.356378z"/>
   <path stroke="null" id="svg_8" fill="#76CCD7" d="m15.882848,73.223847c-2.483948,0.856713 -4.263856,3.165272 -4.263856,5.881122c0,2.714972 1.780808,5.024409 4.263856,5.880244c0.667128,0.229978 1.384673,0.355501 2.132828,0.355501c0.747255,0 1.4648,-0.1264 2.131928,-0.355501c2.483948,-0.856713 4.263856,-3.165272 4.263856,-5.880244c0,-2.715849 -1.780808,-5.025287 -4.263856,-5.881122c-0.667128,-0.229978 -1.384673,-0.355501 -2.131928,-0.355501c-0.748156,0 -1.465701,0.125522 -2.132828,0.355501z"/>
   <path stroke="null" id="svg_9" fill="#76CCD7" d="m69.190954,68.710305l-28.147213,0c-1.065964,0 -2.131928,0.416067 -2.984519,1.247324l-7.889394,7.692858c-0.853491,0.831257 -0.853491,2.078582 0,2.909839l7.889394,7.692858c0.852591,0.831257 1.919456,1.247324 2.984519,1.247324l28.147213,0c1.279337,0 2.131928,-0.831257 2.131928,-2.078582l0,-16.632163c0,-1.248202 -0.853491,-2.079459 -2.131928,-2.079459z"/>
   <path stroke="null" id="svg_10" fill="#76CCD7" d="m38.058321,30.041491c0.852591,0.832135 1.919456,1.248202 2.984519,1.248202l30.280041,0c1.279337,0 2.131928,-0.832135 2.131928,-2.079459l0,-16.632163c0,-1.247324 -0.852591,-2.078582 -2.131928,-2.078582l-30.279141,0c-1.065964,0 -2.131928,0.416067 -2.984519,1.247324l-7.889394,7.692858c-0.853491,0.831257 -0.853491,2.078582 0,2.909839l7.888494,7.691981z"/>
  </g>
 </g>
</svg>